<?xml version="1.0" encoding="UTF-8"?>
<svg width="264px" height="19px" viewBox="0 0 264 19" version="1.1" xmlns="http://www.w3.org/2000/svg" xmlns:xlink="http://www.w3.org/1999/xlink">
    <!-- Generator: Sketch 57 (83077) - https://sketch.com -->
    <title>DEUSADVENTURES</title>
    <desc>Created with Sketch.</desc>
    <g id="Page-1" stroke="none" stroke-width="1" fill="none" fill-rule="evenodd">
        <g id="런칭페이지" transform="translate(-61.000000, -37.000000)" fill="#FFFFFF" fill-rule="nonzero">
            <g id="head" transform="translate(0.000000, 36.000000)">
                <g id="navigation" transform="translate(61.000000, 0.000000)">
                    <path d="M6.75,1.5 C11.725,1.5 15.625,5.4 15.625,10.15 C15.625,15.1 11.725,19 6.75,19 L0.5,19 L0.5,1.5 L6.75,1.5 Z M6.725,15.55 C10.075,15.55 11.875,13.125 11.875,10.15 C11.875,7.375 10.075,4.95 6.725,4.95 L4.15,4.95 L4.15,15.55 L6.725,15.55 Z M24.275,15.65 L31.675,15.65 L31.675,19 L20.625,19 L20.625,1.5 L31.45,1.5 L31.45,4.85 L24.275,4.85 L24.275,8.55 L29.7,8.55 L29.7,11.85 L24.275,11.85 L24.275,15.65 Z M46.675,1.5 L50.325,1.5 L50.325,12.5 C50.325,16.825 47.325,19.25 43.575,19.25 C39.8,19.25 36.8,16.825 36.8,12.5 L36.8,1.5 L40.45,1.5 L40.45,12.5 C40.45,15.075 42.125,15.825 43.575,15.825 C45,15.825 46.675,15.075 46.675,12.5 L46.675,1.5 Z M61.6,1.25 C64.725,1.25 66.575,3.175 67.5,4.875 L64.8,6.475 C63.85,5.15 63.025,4.475 61.625,4.475 C60.3,4.475 59.425,5.175 59.425,6.275 C59.425,7.15 60.025,7.7 61.375,8.2 L62.575,8.625 C66.45,10 67.975,11.575 67.975,14 C67.975,17.525 64.625,19.25 61.675,19.25 C58.5,19.25 56,17.425 55.2,14.925 L58,13.45 C58.625,14.725 59.675,15.95 61.675,15.95 C63.125,15.95 64.175,15.325 64.175,13.925 C64.175,12.775 63.425,12.3 61.525,11.6 L60.5,11.225 C57.9,10.3 55.8,9.025 55.8,6.15 C55.8,3.075 58.425,1.25 61.6,1.25 Z M94.775,19 L93.525,15.875 L85.525,15.875 L84.275,19 L80.4,19 L87.7,1.5 L91.35,1.5 L98.65,19 L94.775,19 Z M86.75,12.875 L92.3,12.875 L89.525,5.95 L86.75,12.875 Z M109.4,1.5 C114.375,1.5 118.275,5.4 118.275,10.15 C118.275,15.1 114.375,19 109.4,19 L103.15,19 L103.15,1.5 L109.4,1.5 Z M109.375,15.55 C112.725,15.55 114.525,13.125 114.525,10.15 C114.525,7.375 112.725,4.95 109.375,4.95 L106.8,4.95 L106.8,15.55 L109.375,15.55 Z M135.5,1.5 L139.375,1.5 L132.075,19 L128.425,19 L121.125,1.5 L125,1.5 L130.25,14.55 L135.5,1.5 Z M147.525,15.65 L154.925,15.65 L154.925,19 L143.875,19 L143.875,1.5 L154.7,1.5 L154.7,4.85 L147.525,4.85 L147.525,8.55 L152.95,8.55 L152.95,11.85 L147.525,11.85 L147.525,15.65 Z M160.05,19 L160.05,1.5 L163.7,1.5 L171.5,13.05 L171.675,13.05 L171.675,1.5 L175.325,1.5 L175.325,19 L171.675,19 L163.875,7.45 L163.7,7.45 L163.7,19 L160.05,19 Z M192.7,1.5 L192.7,4.85 L188.35,4.85 L188.35,19 L184.7,19 L184.7,4.85 L180.325,4.85 L180.325,1.5 L192.7,1.5 Z M207.575,1.5 L211.225,1.5 L211.225,12.5 C211.225,16.825 208.225,19.25 204.475,19.25 C200.7,19.25 197.7,16.825 197.7,12.5 L197.7,1.5 L201.35,1.5 L201.35,12.5 C201.35,15.075 203.025,15.825 204.475,15.825 C205.9,15.825 207.575,15.075 207.575,12.5 L207.575,1.5 Z M230.5,19 L226.625,19 L222.9,13.175 L220.375,13.175 L220.375,19 L216.725,19 L216.725,1.5 L222.85,1.5 C226.775,1.5 229.325,3.875 229.325,7.45 C229.325,9.825 228.175,11.6 226.225,12.5 L230.5,19 Z M220.375,4.85 L220.375,10.025 L222.625,10.025 C224.425,10.025 225.675,9.325 225.675,7.45 C225.675,5.6 224.425,4.85 222.625,4.85 L220.375,4.85 Z M238.9,15.65 L246.3,15.65 L246.3,19 L235.25,19 L235.25,1.5 L246.075,1.5 L246.075,4.85 L238.9,4.85 L238.9,8.55 L244.325,8.55 L244.325,11.85 L238.9,11.85 L238.9,15.65 Z M257.2,1.25 C260.325,1.25 262.175,3.175 263.1,4.875 L260.4,6.475 C259.45,5.15 258.625,4.475 257.225,4.475 C255.9,4.475 255.025,5.175 255.025,6.275 C255.025,7.15 255.625,7.7 256.975,8.2 L258.175,8.625 C262.05,10 263.575,11.575 263.575,14 C263.575,17.525 260.225,19.25 257.275,19.25 C254.1,19.25 251.6,17.425 250.8,14.925 L253.6,13.45 C254.225,14.725 255.275,15.95 257.275,15.95 C258.725,15.95 259.775,15.325 259.775,13.925 C259.775,12.775 259.025,12.3 257.125,11.6 L256.1,11.225 C253.5,10.3 251.4,9.025 251.4,6.15 C251.4,3.075 254.025,1.25 257.2,1.25 Z" id="DEUSADVENTURES"></path>
                </g>
            </g>
        </g>
    </g>
</svg>