<?xml version="1.0" encoding="UTF-8"?>
<svg width="264px" height="19px" viewBox="0 0 264 19" version="1.1" xmlns="http://www.w3.org/2000/svg" xmlns:xlink="http://www.w3.org/1999/xlink">
    <!-- Generator: Sketch 57.1 (83088) - https://sketch.com -->
    <title>DEUSADVENTURES</title>
    <desc>Created with Sketch.</desc>
    <g id="Page-1" stroke="none" stroke-width="1" fill="none" fill-rule="evenodd">
        <g id="런칭페이지" transform="translate(-61.000000, -37.000000)" fill="#000000" fill-rule="nonzero">
            <g id="head" transform="translate(0.000000, 30.000000)">
                <g id="navigation" transform="translate(60.000000, 0.000000)">
                    <path d="M7.75,7.5 C12.725,7.5 16.625,11.4 16.625,16.15 C16.625,21.1 12.725,25 7.75,25 L1.5,25 L1.5,7.5 L7.75,7.5 Z M7.725,21.55 C11.075,21.55 12.875,19.125 12.875,16.15 C12.875,13.375 11.075,10.95 7.725,10.95 L5.15,10.95 L5.15,21.55 L7.725,21.55 Z M25.275,21.65 L32.675,21.65 L32.675,25 L21.625,25 L21.625,7.5 L32.45,7.5 L32.45,10.85 L25.275,10.85 L25.275,14.55 L30.7,14.55 L30.7,17.85 L25.275,17.85 L25.275,21.65 Z M47.675,7.5 L51.325,7.5 L51.325,18.5 C51.325,22.825 48.325,25.25 44.575,25.25 C40.8,25.25 37.8,22.825 37.8,18.5 L37.8,7.5 L41.45,7.5 L41.45,18.5 C41.45,21.075 43.125,21.825 44.575,21.825 C46,21.825 47.675,21.075 47.675,18.5 L47.675,7.5 Z M62.6,7.25 C65.725,7.25 67.575,9.175 68.5,10.875 L65.8,12.475 C64.85,11.15 64.025,10.475 62.625,10.475 C61.3,10.475 60.425,11.175 60.425,12.275 C60.425,13.15 61.025,13.7 62.375,14.2 L63.575,14.625 C67.45,16 68.975,17.575 68.975,20 C68.975,23.525 65.625,25.25 62.675,25.25 C59.5,25.25 57,23.425 56.2,20.925 L59,19.45 C59.625,20.725 60.675,21.95 62.675,21.95 C64.125,21.95 65.175,21.325 65.175,19.925 C65.175,18.775 64.425,18.3 62.525,17.6 L61.5,17.225 C58.9,16.3 56.8,15.025 56.8,12.15 C56.8,9.075 59.425,7.25 62.6,7.25 Z M95.775,25 L94.525,21.875 L86.525,21.875 L85.275,25 L81.4,25 L88.7,7.5 L92.35,7.5 L99.65,25 L95.775,25 Z M87.75,18.875 L93.3,18.875 L90.525,11.95 L87.75,18.875 Z M110.4,7.5 C115.375,7.5 119.275,11.4 119.275,16.15 C119.275,21.1 115.375,25 110.4,25 L104.15,25 L104.15,7.5 L110.4,7.5 Z M110.375,21.55 C113.725,21.55 115.525,19.125 115.525,16.15 C115.525,13.375 113.725,10.95 110.375,10.95 L107.8,10.95 L107.8,21.55 L110.375,21.55 Z M136.5,7.5 L140.375,7.5 L133.075,25 L129.425,25 L122.125,7.5 L126,7.5 L131.25,20.55 L136.5,7.5 Z M148.525,21.65 L155.925,21.65 L155.925,25 L144.875,25 L144.875,7.5 L155.7,7.5 L155.7,10.85 L148.525,10.85 L148.525,14.55 L153.95,14.55 L153.95,17.85 L148.525,17.85 L148.525,21.65 Z M161.05,25 L161.05,7.5 L164.7,7.5 L172.5,19.05 L172.675,19.05 L172.675,7.5 L176.325,7.5 L176.325,25 L172.675,25 L164.875,13.45 L164.7,13.45 L164.7,25 L161.05,25 Z M193.7,7.5 L193.7,10.85 L189.35,10.85 L189.35,25 L185.7,25 L185.7,10.85 L181.325,10.85 L181.325,7.5 L193.7,7.5 Z M208.575,7.5 L212.225,7.5 L212.225,18.5 C212.225,22.825 209.225,25.25 205.475,25.25 C201.7,25.25 198.7,22.825 198.7,18.5 L198.7,7.5 L202.35,7.5 L202.35,18.5 C202.35,21.075 204.025,21.825 205.475,21.825 C206.9,21.825 208.575,21.075 208.575,18.5 L208.575,7.5 Z M231.5,25 L227.625,25 L223.9,19.175 L221.375,19.175 L221.375,25 L217.725,25 L217.725,7.5 L223.85,7.5 C227.775,7.5 230.325,9.875 230.325,13.45 C230.325,15.825 229.175,17.6 227.225,18.5 L231.5,25 Z M221.375,10.85 L221.375,16.025 L223.625,16.025 C225.425,16.025 226.675,15.325 226.675,13.45 C226.675,11.6 225.425,10.85 223.625,10.85 L221.375,10.85 Z M239.9,21.65 L247.3,21.65 L247.3,25 L236.25,25 L236.25,7.5 L247.075,7.5 L247.075,10.85 L239.9,10.85 L239.9,14.55 L245.325,14.55 L245.325,17.85 L239.9,17.85 L239.9,21.65 Z M258.2,7.25 C261.325,7.25 263.175,9.175 264.1,10.875 L261.4,12.475 C260.45,11.15 259.625,10.475 258.225,10.475 C256.9,10.475 256.025,11.175 256.025,12.275 C256.025,13.15 256.625,13.7 257.975,14.2 L259.175,14.625 C263.05,16 264.575,17.575 264.575,20 C264.575,23.525 261.225,25.25 258.275,25.25 C255.1,25.25 252.6,23.425 251.8,20.925 L254.6,19.45 C255.225,20.725 256.275,21.95 258.275,21.95 C259.725,21.95 260.775,21.325 260.775,19.925 C260.775,18.775 260.025,18.3 258.125,17.6 L257.1,17.225 C254.5,16.3 252.4,15.025 252.4,12.15 C252.4,9.075 255.025,7.25 258.2,7.25 Z" id="DEUSADVENTURES"></path>
                </g>
            </g>
        </g>
    </g>
</svg>