<?xml version="1.0" encoding="UTF-8"?>
<svg width="64px" height="64px" viewBox="0 0 64 64" version="1.1" xmlns="http://www.w3.org/2000/svg" xmlns:xlink="http://www.w3.org/1999/xlink">
    <!-- Generator: Sketch 57 (83077) - https://sketch.com -->
    <title>pros_ico4</title>
    <desc>Created with Sketch.</desc>
    <g id="Page-1" stroke="none" stroke-width="1" fill="none" fill-rule="evenodd">
        <g id="런칭페이지" transform="translate(-684.000000, -2415.000000)" stroke="#222829" stroke-width="2">
            <g id="pros_ico4" transform="translate(685.000000, 2416.000000)">
                <path d="M50,19 C50,29.492 41.492,38 31,38 C20.508,38 12,29.492 12,19 C12,8.508 20.508,0 31,0 C41.492,0 50,8.508 50,19 Z" id="Stroke-1"></path>
                <path d="M35,15 C35,12.791 33.209,11 31,11 C28.791,11 27,12.791 27,15 C27,17.209 29,18 31,19 C33,20 35,20.791 35,23 C35,25.209 33.209,27 31,27 C28.791,27 27,25.209 27,23" id="Stroke-3"></path>
                <path d="M31,11 L31,8" id="Stroke-5"></path>
                <path d="M31,27 L31,30" id="Stroke-7"></path>
                <path d="M13,44 L6,37 L6,36 C6,34.344 7.344,33 9,33 L10,33 L20,43 C22,45 22,48 22,48 L22,56 L11,56 L11,54 C11,54 11,52 9,50 L2,43 C0,41 0,39 0,39 L0,23 C0,21.344 1.344,20 3,20 C4.656,20 6,21.344 6,23 L6,31" id="Stroke-9"></path>
                <path d="M49,44 L56,37 L56,36 C56,34.344 54.656,33 53,33 L52,33 L42,43 C40,45 40,48 40,48 L40,56 L51,56 L51,54 C51,54 51,52 53,50 L60,43 C62,41 62,39 62,39 L62,23 C62,21.344 60.656,20 59,20 C57.344,20 56,21.344 56,23 L56,31" id="Stroke-11"></path>
                <path d="M38,63 L38,57 C38,56.447 38.447,56 39,56 L52,56 C52.553,56 53,56.447 53,57 L53,63" id="Stroke-13"></path>
                <path d="M9,63 L9,57 C9,56.447 9.447,56 10,56 L23,56 C23.553,56 24,56.447 24,57 L24,63" id="Stroke-15"></path>
                <path d="M21,19 L23,19" id="Stroke-17"></path>
                <path d="M39,19 L41,19" id="Stroke-19"></path>
                <path d="M46,19 C46,27.284 39.284,34 31,34 C22.716,34 16,27.284 16,19 C16,10.716 22.716,4 31,4 C39.284,4 46,10.716 46,19 Z" id="Stroke-21"></path>
            </g>
        </g>
    </g>
</svg>