<?xml version="1.0" encoding="UTF-8"?>
<svg width="64px" height="60px" viewBox="0 0 64 60" version="1.1" xmlns="http://www.w3.org/2000/svg" xmlns:xlink="http://www.w3.org/1999/xlink">
    <!-- Generator: Sketch 57 (83077) - https://sketch.com -->
    <title>pros_ico3</title>
    <desc>Created with Sketch.</desc>
    <g id="Page-1" stroke="none" stroke-width="1" fill="none" fill-rule="evenodd" stroke-linejoin="round">
        <g id="런칭페이지" transform="translate(-684.000000, -2417.000000)" stroke="#222829" stroke-width="2">
            <g id="pros_ico3" transform="translate(685.000000, 2418.000000)">
                <path d="M27,8 L34,8 C36.209,8 38,9.791 38,12 L38,19 L44,33 L44,34 L38,34 L38,44 C38,46.209 36.209,48 34,48 L16,48 L16,58 L6,48 L4,48 C1.791,48 0,46.209 0,44 L0,12 C0,9.791 1.791,8 4,8 L21,8" id="Stroke-1"></path>
                <path d="M41,40 L46,40 L46,50 L56,40 L58,40 C60.209,40 62,38.209 62,36 L62,4 C62,1.791 60.209,0 58,0 L28,0 C25.791,0 24,1.791 24,4 L24,13 L18,27 L18,28 L24,28 L24,36 C24,38.209 25.791,40 28,40 L35,40" id="Stroke-3"></path>
                <path d="M43,8 L57,8" id="Stroke-5"></path>
                <path d="M43,12 L57,12" id="Stroke-7"></path>
                <path d="M43,16 L53,16" id="Stroke-9"></path>
                <path d="M5,14 L17,14" id="Stroke-11"></path>
                <path d="M5,18 L17,18" id="Stroke-13"></path>
                <path d="M5,22 L13,22" id="Stroke-15"></path>
            </g>
        </g>
    </g>
</svg>