<?xml version="1.0" encoding="UTF-8"?>
<svg width="64px" height="60px" viewBox="0 0 64 60" version="1.1" xmlns="http://www.w3.org/2000/svg" xmlns:xlink="http://www.w3.org/1999/xlink">
    <!-- Generator: Sketch 57 (83077) - https://sketch.com -->
    <title>pros_ico7</title>
    <desc>Created with Sketch.</desc>
    <g id="Page-1" stroke="none" stroke-width="1" fill="none" fill-rule="evenodd">
        <g id="런칭페이지" transform="translate(-684.000000, -2417.000000)" stroke="#222829" stroke-width="2">
            <g id="pros_ico7" transform="translate(685.000000, 2418.000000)">
                <path d="M18,59 L18,52 C18,42 25,43 32,39" id="Stroke-1"></path>
                <path d="M48,39 C55,43 62,42 62,52 L62,59" id="Stroke-3"></path>
                <polygon id="Stroke-5" points="44 43 40 41 36 43 32 39 34 36 40 37 46 36 48 39"></polygon>
                <path d="M45,32 L45,36" id="Stroke-7"></path>
                <path d="M35,36 L35,32" id="Stroke-9"></path>
                <path d="M39,50 L41,50" id="Stroke-11"></path>
                <path d="M39,46 L41,46" id="Stroke-13"></path>
                <path d="M49,19 C49,12.925 46.075,10 40,10 C33.925,10 31,12.925 31,19 L31,23 C32,30 35,32 35,32 C37,33 40,33 40,33 C40,33 43,33 45,32 C45,32 48,30 49,23 L49,19 Z" id="Stroke-15"></path>
                <polyline id="Stroke-17" points="31 19 35 17 40 19 45 21 49 19"></polyline>
                <polyline id="Stroke-19" points="14 26 20 20 20 9"></polyline>
                <path d="M20,35 L20,37" id="Stroke-21"></path>
                <path d="M4,19 L4,21" id="Stroke-23"></path>
                <path d="M20,3 L20,5" id="Stroke-25"></path>
                <path d="M8,31 L10,31" id="Stroke-27"></path>
                <path d="M8,9 L10,9" id="Stroke-29"></path>
                <path d="M29,9 L31,9" id="Stroke-31"></path>
                <path d="M21,40 L20,40 C8.954,40 0,31.046 0,20 C0,8.954 8.954,0 20,0 C26.084,0 31.332,2.714 35,7" id="Stroke-33"></path>
                <path d="M26,59 L26,53" id="Stroke-35"></path>
                <path d="M54,59 L54,53" id="Stroke-37"></path>
            </g>
        </g>
    </g>
</svg>