<?xml version="1.0" encoding="UTF-8"?>
<svg width="58px" height="64px" viewBox="0 0 58 64" version="1.1" xmlns="http://www.w3.org/2000/svg" xmlns:xlink="http://www.w3.org/1999/xlink">
    <!-- Generator: Sketch 57 (83077) - https://sketch.com -->
    <title>pros_ico5</title>
    <desc>Created with Sketch.</desc>
    <g id="Page-1" stroke="none" stroke-width="1" fill="none" fill-rule="evenodd">
        <g id="런칭페이지" transform="translate(-687.000000, -2415.000000)" stroke="#222829" stroke-width="2">
            <g id="pros_ico5" transform="translate(688.000000, 2416.000000)">
                <path d="M9.0215,22 C12.3915,14.905 19.6235,10 28.0005,10 C36.3765,10 43.6085,14.905 46.9785,22" id="Stroke-1"></path>
                <path d="M46.9785,40 C43.6085,47.095 36.3765,52 27.9995,52 C19.6245,52 12.3945,47.097 9.0225,40.004" id="Stroke-3"></path>
                <path d="M31,3 C45.056,4.494 56,16.548 56,31 C56,40.515 51.254,48.921 44,53.98" id="Stroke-5"></path>
                <path d="M25,59 C10.943,57.506 0,45.453 0,31 C0,21.484 4.746,13.078 12,8.019" id="Stroke-7"></path>
                <path d="M31,3 C31,4.656 29.656,6 28,6 C26.344,6 25,4.656 25,3 C25,1.344 26.344,0 28,0 C29.656,0 31,1.344 31,3 Z" id="Stroke-9"></path>
                <path d="M31,59 C31,60.656 29.656,62 28,62 C26.344,62 25,60.656 25,59 C25,57.344 26.344,56 28,56 C29.656,56 31,57.344 31,59 Z" id="Stroke-11"></path>
                <path d="M10,31 L46,31" id="Stroke-13"></path>
                <path d="M43,16.1387 C39.523,18.4887 34.098,19.9997 28,19.9997 C21.902,19.9997 16.477,18.4887 13,16.1387" id="Stroke-15"></path>
                <path d="M13,45.8613 C16.477,43.5113 21.902,42.0003 28,42.0003 C34.098,42.0003 39.523,43.5113 43,45.8613" id="Stroke-17"></path>
                <path d="M10,31 C10,32.656 8.656,34 7,34 C5.344,34 4,32.656 4,31 C4,29.344 5.344,28 7,28 C8.656,28 10,29.344 10,31 Z" id="Stroke-19"></path>
                <path d="M52,31 C52,32.656 50.656,34 49,34 C47.344,34 46,32.656 46,31 C46,29.344 47.344,28 49,28 C50.656,28 52,29.344 52,31 Z" id="Stroke-21"></path>
                <path d="M35,31 C35,42.598 31.866,52 28,52 C24.134,52 21,42.598 21,31 C21,19.402 24.134,10 28,10 C31.866,10 35,19.402 35,31 Z" id="Stroke-23"></path>
            </g>
        </g>
    </g>
</svg>